<svg width="282" height="254" viewBox="0 0 282 254" fill="none" xmlns="http://www.w3.org/2000/svg">
<g clip-path="url(#clip0_1329_549)">
<path d="M93.8223 251.785L35.6231 230.361M35.6231 230.361L18.0948 170.878L1.99243 102.134L54.3715 68.1326L116.302 91.5583M35.6231 230.361L89.7524 212.662M116.302 91.5583L125.508 112.352M116.302 91.5583L139.662 78.6725M125.508 112.352L159.998 84.9577M125.508 112.352L200.256 155.152M159.998 84.9577L209.45 113.432M159.998 84.9577L197.076 72.2485M159.998 84.9577L139.662 78.6725M209.45 113.432L200.256 155.152M209.45 113.432L197.076 72.2485M209.45 113.432L239.714 122.45M200.256 155.152L210.247 178.398M200.256 155.152L239.714 122.45M239.714 122.45L280.312 102.786M197.076 72.2485L230.574 33.1203M139.662 78.6725L134.241 30.2525L118.961 37.2188L90.2062 12.4294L80.8598 2.54139" stroke="#454545"/>
</g>
<defs>
<clipPath id="clip0_1329_549">
<rect width="282" height="254" fill="white"/>
</clipPath>
</defs>
</svg>
